<?xml version="1.0" encoding="UTF-8" standalone="no"?>
<!-- Created with Inkscape (http://www.inkscape.org/) -->

<svg
   width="180"
   height="180"
   viewBox="0 0 180 180"
   version="1.1"
   id="svg1"
   xmlns="http://www.w3.org/2000/svg"
   xmlns:svg="http://www.w3.org/2000/svg">
  <defs
     id="defs1" />
  <g
     id="layer1">
    <g
       id="g12"
       transform="translate(-230.0957,204.66414)">
      <path
         id="path1"
         style="font-size:93.3333px;line-height:0.75;font-family:Outfit;-inkscape-font-specification:'Outfit, @wght=800';font-variation-settings:'wght' 800;letter-spacing:-0.37px;fill:#8126d9;fill-opacity:1;stroke-width:1.5254;stroke-linejoin:round;paint-order:markers stroke fill"
         d="m 308.90039,-157.17586 v 89.02344 h 22.47656 14.43945 c 6.78038,0 13.01682,-1.04597 18.70899,-3.13867 5.77587,-2.17642 10.79728,-5.23172 15.0664,-9.16602 4.26913,-3.93429 7.57609,-8.62146 9.91993,-14.0625 2.42755,-5.44104 3.64062,-11.51037 3.64062,-18.20703 0,-6.61297 -1.21307,-12.64099 -3.64062,-18.08203 -2.34384,-5.44104 -5.6508,-10.1282 -9.91993,-14.0625 -4.26912,-3.93429 -9.29053,-6.9483 -15.0664,-9.04102 -5.77588,-2.1764 -12.09686,-3.26367 -18.96094,-3.26367 h -14.1875 z m -37.03125,0.125 a 20.829745,20.829745 0 0 0 -20.83008,20.83008 20.829745,20.829745 0 0 0 20.83008,20.83008 20.829745,20.829745 0 0 0 20.82812,-20.83008 20.829745,20.829745 0 0 0 -20.82812,-20.83008 z m 59.50781,19.21094 h 14.0625 c 5.0225,0 9.37542,0.96338 13.0586,2.88867 3.68316,1.92529 6.5281,4.77023 8.5371,8.53711 2.0927,3.68316 3.14063,8.20517 3.14063,13.5625 0,5.44105 -1.00468,10.08692 -3.01367,13.9375 -2.009,3.76688 -4.89719,6.61183 -8.66406,8.5371 -3.68318,1.92529 -8.0361,2.88869 -13.0586,2.88869 h -14.0625 z m -59.50781,28.62304 a 19.788259,20.532177 0 0 0 -19.78907,20.5332 19.788259,20.532177 0 0 0 19.78907,20.53126 19.788259,20.532177 0 0 0 19.78711,-20.53126 19.788259,20.532177 0 0 0 -19.78711,-20.5332 z" />
      <path
         id="path12"
         style="font-size:93.3333px;line-height:0.75;font-family:Outfit;-inkscape-font-specification:'Outfit, @wght=800';font-variation-settings:'wght' 800;letter-spacing:-0.37px;fill:#ffffff;fill-opacity:1;stroke-width:1.5254;stroke-linejoin:round;paint-order:markers stroke fill"
         d="m 304.90039,-161.17586 v 89.02344 h 22.47656 14.43945 c 6.78038,0 13.01682,-1.04597 18.70899,-3.13867 5.77587,-2.17642 10.79728,-5.23172 15.0664,-9.16602 4.26913,-3.93429 7.57609,-8.62146 9.91993,-14.0625 2.42755,-5.44104 3.64062,-11.51037 3.64062,-18.20703 0,-6.61297 -1.21307,-12.64099 -3.64062,-18.08203 -2.34384,-5.44104 -5.6508,-10.1282 -9.91993,-14.0625 -4.26912,-3.93429 -9.29053,-6.9483 -15.0664,-9.04102 -5.77588,-2.1764 -12.09686,-3.26367 -18.96094,-3.26367 h -14.1875 z m -37.03125,0.125 a 20.829745,20.829745 0 0 0 -20.83008,20.83008 20.829745,20.829745 0 0 0 20.83008,20.83008 20.829745,20.829745 0 0 0 20.82812,-20.83008 20.829745,20.829745 0 0 0 -20.82812,-20.83008 z m 59.50781,19.21094 h 14.0625 c 5.0225,0 9.37542,0.96338 13.0586,2.88867 3.68316,1.92529 6.5281,4.77023 8.5371,8.53711 2.0927,3.68316 3.14063,8.20517 3.14063,13.5625 0,5.44105 -1.00468,10.08692 -3.01367,13.9375 -2.009,3.76688 -4.89719,6.61183 -8.66406,8.5371 -3.68318,1.92529 -8.0361,2.88869 -13.0586,2.88869 h -14.0625 z m -59.50781,28.62304 a 19.788259,20.532177 0 0 0 -19.78907,20.5332 19.788259,20.532177 0 0 0 19.78907,20.53126 19.788259,20.532177 0 0 0 19.78711,-20.53126 19.788259,20.532177 0 0 0 -19.78711,-20.5332 z" />
    </g>
  </g>
</svg>
