<?xml version="1.0" encoding="UTF-8" standalone="no"?>
<!-- Created with Inkscape (http://www.inkscape.org/) -->

<svg
   width="105.63672"
   height="66.171883"
   viewBox="0 0 105.63672 66.171883"
   version="1.1"
   id="svg1"
   xmlns="http://www.w3.org/2000/svg"
   xmlns:svg="http://www.w3.org/2000/svg">
  <defs
     id="defs1" />
  <g
     id="g3"
     transform="translate(-324.60096,-516.35937)">
    <g
       id="g2">
      <path
         d="m 340.08339,516.35937 c -8.55053,4.3e-4 -15.48199,6.93189 -15.48242,15.48242 4.3e-4,8.55053 6.93189,15.48199 15.48242,15.48242 8.55129,6.6e-4 15.48395,-6.93113 15.48438,-15.48242 -4.3e-4,-8.55129 -6.93309,-15.48308 -15.48438,-15.48242 z m 27.52735,0 v 66.17188 h 11.29297 5.41406 10.73242 c 5.04,0 9.67514,-0.77649 13.90625,-2.33204 4.29333,-1.61778 8.02784,-3.89 11.20117,-6.81445 3.17333,-2.92444 5.63083,-6.40868 7.37305,-10.45312 1.80445,-4.04445 2.70703,-8.55543 2.70703,-13.53321 0,-4.91555 -0.90258,-9.39501 -2.70703,-13.43945 -1.74222,-4.04445 -4.19972,-7.52868 -7.37305,-10.45313 -3.17333,-2.92444 -6.90784,-5.16515 -11.20117,-6.7207 -4.29333,-1.61778 -8.99153,-2.42578 -14.09375,-2.42578 h -10.54492 -6.16016 z m 16.70703,14.37304 h 10.45312 c 3.73334,0 6.96926,0.71538 9.70704,2.14649 2.73777,1.43111 4.85237,3.5457 6.3457,6.3457 1.55555,2.73778 2.33398,6.09786 2.33398,10.08008 0,4.04444 -0.7469,7.49911 -2.24023,10.36133 -1.49333,2.8 -3.63945,4.91459 -6.43945,6.3457 -2.73778,1.43111 -5.9737,2.14649 -9.70704,2.14649 h -10.45312 z m -44.23438,21.18165 c -8.12345,3e-5 -14.70883,6.83288 -14.70898,15.26172 -8.9e-4,8.4296 6.5848,15.26364 14.70898,15.26367 8.12419,-3e-5 14.70988,-6.83407 14.70899,-15.26367 -1.5e-4,-8.42884 -6.58554,-15.26169 -14.70899,-15.26172 z"
         style="font-size:93.3333px;line-height:0.75;font-family:Outfit;-inkscape-font-specification:'Outfit, @wght=800';font-variation-settings:'wght' 800;letter-spacing:-0.37px;fill:#ffffff;fill-opacity:1;stroke-width:1.13386;stroke-linejoin:round;paint-order:markers stroke fill"
         id="path1" />
    </g>
  </g>
</svg>
